<svg 
 xmlns="http://www.w3.org/2000/svg"
 xmlns:xlink="http://www.w3.org/1999/xlink"
 width="101px" height="101px">
<path fill-rule="evenodd"  fill="rgb(24, 142, 243)"
 d="M97.870,30.989 C91.916,40.431 79.436,43.258 69.993,37.305 L65.503,43.837 C62.764,47.849 62.764,53.129 65.503,57.142 L69.993,63.676 C73.195,61.642 76.910,60.561 80.703,60.560 C84.492,60.556 88.203,61.622 91.413,63.635 C100.827,69.538 103.674,81.955 97.770,91.370 C91.866,100.784 79.448,103.629 70.34,97.725 C60.619,91.822 57.774,79.405 63.678,69.991 L57.143,65.501 C53.132,62.763 47.853,62.763 43.842,65.501 L37.306,69.993 C41.460,76.579 41.460,84.966 37.306,91.553 C31.352,100.994 18.872,103.822 9.430,97.868 C0.11,91.915 -2.839,79.434 3.114,69.993 C9.68,60.551 21.548,57.724 30.990,63.677 L35.480,57.145 C38.220,53.133 38.220,47.852 35.480,43.841 L30.990,37.306 C24.404,41.460 16.17,41.460 9.430,37.306 C0.11,31.353 -2.839,18.872 3.114,9.430 C9.68,0.10 21.548,-2.838 30.990,3.115 C40.432,9.69 43.260,21.549 37.306,30.990 L43.840,35.480 C47.851,38.219 53.131,38.219 57.141,35.480 L63.678,30.989 C59.524,24.403 59.524,16.15 63.678,9.429 C69.632,0.12 82.112,-2.839 91.554,3.113 C100.996,9.67 103.823,21.548 97.870,30.989 ZM80.703,97.484 C89.968,97.474 97.476,89.965 97.487,80.700 C97.487,71.432 89.972,63.917 80.703,63.917 C71.434,63.917 63.919,71.432 63.919,80.700 C63.919,89.969 71.434,97.484 80.703,97.484 ZM20.281,63.917 C11.11,63.917 3.497,71.432 3.497,80.700 C3.497,89.969 11.11,97.484 20.281,97.484 C29.546,97.474 37.55,89.965 37.65,80.700 C37.65,71.432 29.550,63.917 20.281,63.917 ZM20.281,3.496 C11.11,3.496 3.497,11.10 3.497,20.280 C3.507,29.545 11.15,37.53 20.281,37.63 C29.550,37.63 37.65,29.549 37.65,20.280 C37.65,11.10 29.550,3.496 20.281,3.496 ZM59.40,38.238 C53.882,41.762 47.90,41.762 41.932,38.238 L35.276,33.674 C34.769,34.241 34.232,34.778 33.666,35.284 L38.240,41.939 C41.763,47.99 41.763,53.890 38.240,59.50 L33.678,65.706 C34.244,66.212 34.782,66.749 35.287,67.316 L41.944,62.742 C47.102,59.221 53.893,59.221 59.52,62.742 L65.709,67.314 C66.214,66.747 66.751,66.210 67.318,65.705 L62.744,59.50 C59.217,53.889 59.217,47.92 62.744,41.930 L67.306,35.274 C66.740,34.768 66.202,34.231 65.696,33.664 L59.40,38.238 ZM80.703,3.496 C71.438,3.506 63.929,11.14 63.919,20.280 C63.919,29.549 71.434,37.63 80.703,37.63 C89.972,37.63 97.487,29.549 97.487,20.280 C97.487,11.10 89.972,3.496 80.703,3.496 ZM87.908,29.860 L82.860,24.811 C82.188,25.140 81.451,25.312 80.703,25.315 C77.922,25.315 75.668,23.60 75.668,20.280 C75.671,19.532 75.843,18.794 76.171,18.123 L71.124,13.74 L73.497,10.701 L78.546,15.748 C79.217,15.420 79.955,15.248 80.703,15.245 C83.484,15.245 85.738,17.499 85.738,20.280 C85.735,21.27 85.563,21.765 85.235,22.436 L90.281,27.487 L87.908,29.860 ZM80.703,18.601 C79.776,18.601 79.24,19.352 79.24,20.280 C79.24,21.207 79.776,21.958 80.703,21.958 C81.630,21.958 82.381,21.207 82.381,20.280 C82.381,19.352 81.630,18.601 80.703,18.601 ZM50.492,57.204 C46.784,57.204 43.778,54.197 43.778,50.490 C43.778,46.782 46.784,43.776 50.492,43.776 C54.199,43.776 57.205,46.782 57.205,50.490 C57.205,54.197 54.199,57.204 50.492,57.204 ZM50.492,47.133 C48.638,47.133 47.135,48.637 47.135,50.490 C47.135,52.344 48.638,53.847 50.492,53.847 C52.347,53.847 53.849,52.344 53.849,50.490 C53.849,48.637 52.347,47.133 50.492,47.133 ZM25.316,20.280 C25.316,23.60 23.62,25.315 20.281,25.315 C19.533,25.312 18.796,25.140 18.124,24.811 L13.75,29.858 L10.702,27.485 L15.749,22.436 C15.421,21.765 15.249,21.27 15.246,20.280 C15.246,17.499 17.500,15.245 20.281,15.245 C21.29,15.248 21.766,15.420 22.437,15.748 L27.486,10.701 L29.861,13.74 L24.813,18.123 C25.141,18.794 25.313,19.532 25.316,20.280 ZM20.281,18.601 C19.354,18.601 18.602,19.352 18.602,20.280 C18.602,21.207 19.354,21.958 20.281,21.958 C21.207,21.958 21.959,21.207 21.959,20.280 C21.959,19.352 21.207,18.601 20.281,18.601 ZM27.486,90.281 L22.437,85.232 C21.766,85.560 21.29,85.732 20.281,85.736 C17.500,85.736 15.246,83.481 15.246,80.700 C15.249,79.952 15.421,79.215 15.749,78.544 L10.702,73.495 L13.75,71.122 L18.124,76.169 C18.796,75.841 19.533,75.669 20.281,75.666 C23.62,75.666 25.316,77.920 25.316,80.700 C25.313,81.448 25.141,82.186 24.813,82.857 L29.859,87.907 L27.486,90.281 ZM20.281,79.22 C19.354,79.22 18.602,79.773 18.602,80.700 C18.602,81.628 19.354,82.379 20.281,82.379 C21.207,82.379 21.959,81.628 21.959,80.700 C21.959,79.773 21.207,79.22 20.281,79.22 ZM75.668,80.700 C75.668,77.920 77.922,75.666 80.703,75.666 C81.451,75.669 82.188,75.841 82.860,76.169 L87.908,71.122 L90.283,73.495 L85.235,78.544 C85.563,79.215 85.735,79.952 85.738,80.700 C85.738,83.481 83.484,85.736 80.703,85.736 C79.955,85.732 79.217,85.560 78.546,85.232 L73.496,90.279 L71.122,87.906 L76.171,82.857 C75.843,82.186 75.671,81.448 75.668,80.700 ZM80.703,82.379 C81.630,82.379 82.381,81.628 82.381,80.700 C82.381,79.773 81.630,79.22 80.703,79.22 C79.776,79.22 79.24,79.773 79.24,80.700 C79.24,81.628 79.776,82.379 80.703,82.379 Z"/>
</svg>