<svg id="Grupa_4" data-name="Grupa 4" xmlns="http://www.w3.org/2000/svg" width="192" height="192" viewBox="0 0 192 192">
  <defs>
    <style>
      .cls-1 {
        fill: #f3f3f3;
      }

      .cls-2, .cls-4 {
        fill: #0073cf;
      }

      .cls-3 {
        font-size: 18px;
        fill: #fff;
        font-family: Lexend;
        font-weight: 700;
      }

      .cls-4 {
        fill-rule: evenodd;
      }
    </style>
  </defs>
  <circle id="Ellipse_8_copy_3" data-name="Ellipse 8 copy 3" class="cls-1" cx="90" cy="90" r="90"/>
  <circle id="Ellipse_7_copy_3" data-name="Ellipse 7 copy 3" class="cls-2" cx="156" cy="156" r="36"/>
  <text id="_4" data-name="4" class="cls-3" x="151" y="162">4</text>
  <path class="cls-4" d="M1099.93,1125.55a9.153,9.153,0,0,1,7.41-8.98v-1.93a2.505,2.505,0,0,1,5.01,0v1.99a9.864,9.864,0,0,1,6.65,5.72,2.49,2.49,0,0,1-1.44,3.22,2.516,2.516,0,0,1-3.18-1.3,4.9,4.9,0,0,0-4.52-2.99c-2.37,0-4.9,1.34-4.9,4.27,0,0.76,0,3.08,5.46,4.32h0.08c8.02,1.87,9.27,6.54,9.27,9.16a9.153,9.153,0,0,1-7.41,8.98V1150a2.505,2.505,0,0,1-5.01,0v-1.99a9.885,9.885,0,0,1-6.65-5.72,2.492,2.492,0,0,1,1.25-3.3,2.519,2.519,0,0,1,3.32,1.24c0.02,0.05.04,0.09,0.06,0.14a4.908,4.908,0,0,0,4.53,2.99c2.36,0,4.9-1.34,4.9-4.27,0-.76,0-3.08-5.46-4.32h-0.08C1101.14,1132.85,1099.93,1128.18,1099.93,1125.55Zm18.05-34.21a2.514,2.514,0,0,0,3.46-.62l8.63-12.22a2.5,2.5,0,0,0-.46-3.36c-11.09-9.16-28.45-9.14-39.53.03a2.476,2.476,0,0,0-.45,3.35l8.63,12.2a2.512,2.512,0,0,0,3.51.47,2.478,2.478,0,0,0,.59-3.33l-7.24-10.24a26.865,26.865,0,0,1,29.45,0l-7.23,10.26a2.469,2.469,0,0,0,.61,3.46h0.03Zm-41.89,48.54a56.581,56.581,0,0,1,20.26-43.18,2.543,2.543,0,0,1,1.62-.59h23.75a2.5,2.5,0,0,1,1.61.59,56.543,56.543,0,0,1,20.27,43.18v7.09l0.77,0.37a9.271,9.271,0,0,1-4.01,17.65h-61.04a9.269,9.269,0,0,1-4.01-17.65l0.77-.37Zm-1,16.78a4.294,4.294,0,0,0,4.21,3.35h61.05a4.3,4.3,0,0,0,1.87-8.17l-2.2-.99a2.493,2.493,0,0,1-1.41-2.32v-8.65a51.576,51.576,0,0,0-17.82-38.79H1098.9a51.568,51.568,0,0,0-17.79,38.8v8.65a2.523,2.523,0,0,1-1.43,2.25l-2.19.99a4.286,4.286,0,0,0-2.38,4.88h-0.02Z" transform="translate(-1020 -1033)"/>
</svg>
