<svg 
 xmlns="http://www.w3.org/2000/svg"
 xmlns:xlink="http://www.w3.org/1999/xlink"
 width="192px" height="192px">
<path fill-rule="evenodd"  fill="rgb(243, 243, 243)"
 d="M89.999,0.0 C139.705,0.0 179.999,40.294 179.999,89.999 C179.999,139.705 139.705,179.999 89.999,179.999 C40.294,179.999 0.0,139.705 0.0,89.999 C0.0,40.294 40.294,0.0 89.999,0.0 Z"/>
<path fill-rule="evenodd"  fill="rgb(0, 115, 207)"
 d="M155.999,119.999 C175.882,119.999 191.999,136.117 191.999,155.999 C191.999,175.882 175.882,191.999 155.999,191.999 C136.117,191.999 119.999,175.882 119.999,155.999 C119.999,136.117 136.117,119.999 155.999,119.999 Z"/>
<text kerning="auto" font-family="Myriad Pro" fill="rgb(0, 0, 0)" font-size="18px" x="151px" y="162px"><tspan font-size="18px" font-family="Lexend" font-weight="bold" fill="#FFFFFF">&#50;</tspan></text>
<path fill-rule="evenodd"  fill="rgb(0, 115, 207)"
 d="M117.935,90.978 L85.633,90.978 C83.965,90.978 82.614,89.626 82.614,87.960 C82.614,86.293 83.965,84.942 85.633,84.942 L117.935,84.942 C119.602,84.942 120.954,86.293 120.954,87.960 C120.954,89.626 119.602,90.978 117.935,90.978 ZM117.935,67.838 L85.633,67.838 C83.965,67.838 82.614,66.486 82.614,64.820 C82.614,63.153 83.965,61.801 85.633,61.801 L117.935,61.801 C119.602,61.801 120.954,63.153 120.954,64.820 C120.954,66.486 119.602,67.838 117.935,67.838 ZM67.821,119.954 C62.953,119.900 59.20,115.968 58.966,111.100 C58.966,106.210 62.930,102.247 67.821,102.247 C72.712,102.247 76.676,106.210 76.676,111.100 C76.676,115.991 72.712,119.954 67.821,119.954 ZM67.821,108.182 L67.821,108.283 C66.265,108.283 65.4,109.544 65.4,111.100 C65.58,112.616 66.302,113.816 67.818,113.817 C69.374,113.818 70.636,112.558 70.637,111.2 C70.638,109.446 69.377,108.184 67.821,108.182 ZM67.821,96.814 C62.953,96.760 59.20,92.827 58.966,87.960 C58.966,83.70 62.930,79.107 67.821,79.107 C72.712,79.107 76.676,83.70 76.676,87.960 C76.676,92.850 72.712,96.814 67.821,96.814 ZM67.821,85.42 L67.821,85.143 C66.265,85.143 65.4,86.404 65.4,87.960 C65.58,89.475 66.302,90.676 67.818,90.677 C69.374,90.678 70.636,89.417 70.637,87.861 C70.638,86.306 69.377,85.43 67.821,85.42 ZM67.821,73.673 C62.953,73.619 59.20,69.687 58.966,64.820 C58.966,59.930 62.930,55.966 67.821,55.966 C72.712,55.966 76.676,59.930 76.676,64.820 C76.676,69.710 72.712,73.673 67.821,73.673 ZM67.821,61.902 L67.821,62.3 C66.265,62.3 65.4,63.264 65.4,64.820 C65.58,66.335 66.302,67.535 67.818,67.536 C69.374,67.537 70.636,66.277 70.637,64.721 C70.638,63.165 69.377,61.903 67.821,61.902 ZM85.633,108.82 L117.935,108.82 C119.602,108.82 120.954,109.434 120.954,111.100 C120.954,112.767 119.602,114.119 117.935,114.119 L85.633,114.119 C83.965,114.119 82.614,112.767 82.614,111.100 C82.614,109.434 83.965,108.82 85.633,108.82 Z"/>
</svg>