<svg id="Grupa_1" data-name="Grupa 1" xmlns="http://www.w3.org/2000/svg" width="192" height="192" viewBox="0 0 192 192">
  <defs>
    <style>
      .cls-1 {
        fill: #f3f3f3;
      }

      .cls-2, .cls-3 {
        fill: #0073cf;
      }

      .cls-3 {
        fill-rule: evenodd;
      }

      .cls-4 {
        font-size: 18px;
        fill: #fff;
        font-family: Lexend;
        font-weight: 700;
      }
    </style>
  </defs>
  <circle class="cls-1" cx="90" cy="90" r="90"/>
  <circle class="cls-2" cx="156" cy="156" r="36"/>
  <path class="cls-3" d="M481.94,913.389a5.306,5.306,0,1,1-5.307,5.306A5.306,5.306,0,0,1,481.94,913.389Zm28.657,0a5.306,5.306,0,1,1-5.307,5.306A5.306,5.306,0,0,1,510.6,913.389Zm17.816-50.172a2.3,2.3,0,0,0-1.9-.91H475.8l-1.213-8.185A2.451,2.451,0,0,0,472.16,852H459.5a2.524,2.524,0,0,0-2.5,2.5,2.459,2.459,0,0,0,2.5,2.425h10.538l5.534,36.985-4.322,11.824a2.447,2.447,0,0,0,.3,2.274,2.42,2.42,0,0,0,2.047,1.06h44.956a2.5,2.5,0,1,0,0-5H477.088l2.729-7.5h35.025a9.566,9.566,0,0,0,9.325-7.579l4.776-23.722A2.436,2.436,0,0,0,528.413,863.217Zm-9.174,24.859a4.549,4.549,0,0,1-4.472,3.638H480.2l-3.639-24.48h46.928ZM485.731,877.01H514.16a2.5,2.5,0,1,0,0-5H485.731A2.5,2.5,0,1,0,485.731,877.01Zm25.776,4.851H488.46a2.5,2.5,0,1,0,0,5h23.047A2.5,2.5,0,0,0,511.507,881.861Z" transform="translate(-403 -799)"/>
  <text id="_1" data-name="1" class="cls-4" x="151" y="162">1</text>
</svg>
