<svg id="Grupa_1" data-name="Grupa 1" xmlns="http://www.w3.org/2000/svg" width="192" height="192" viewBox="0 0 192 192">
  <defs>
    <style>
      .cls-1 {
        fill: #f3f3f3;
      }

      .cls-2, .cls-4 {
        fill: #0073cf;
      }

      .cls-3 {
        font-size: 18px;
        fill: #fff;
        font-family: Lexend;
        font-weight: 700;
      }

      .cls-4 {
        fill-rule: evenodd;
      }
    </style>
  </defs>
  <circle class="cls-1" cx="90" cy="90" r="90"/>
  <circle class="cls-2" cx="156" cy="156" r="36"/>
  <text id="_1" data-name="1" class="cls-3" x="151" y="162">1</text>
  <path class="cls-4" d="M531.993,888.587A38,38,0,1,0,473.7,920.24h0l0.759,0.428a32.327,32.327,0,0,0,3.013,1.608l1.085,0.51,1.873,0.643,1.411,0.509,1.547,0.509c0.95,0.268,1.9.536,2.849,0.724l1.032,0.188c0.787,0,1.6.268,2.415,0.348l1.058,0.134c1.113,0,2.253.161,3.392,0.161a23.757,23.757,0,0,0,3.393-.161l1.058-.134a14.566,14.566,0,0,0,2.415-.348l1.032-.188c0.95-.188,1.9-0.456,2.849-0.724l1.547-.509,1.411-.509,1.656-.67,1.085-.509a32.565,32.565,0,0,0,3.013-1.608l0.759-.429h0A37.413,37.413,0,0,0,531.993,888.587ZM478.26,916.7a16.334,16.334,0,0,1,31.48,0A33.118,33.118,0,0,1,478.26,916.7Zm36.175-3.109a21.8,21.8,0,0,0-40.87,0,31.89,31.89,0,0,1-4.921-45.223,32.845,32.845,0,0,1,45.791-4.86,31.892,31.892,0,0,1,4.921,45.223A32.355,32.355,0,0,1,514.435,913.593ZM494,864.466a16.082,16.082,0,1,0,16.283,16.081A16.183,16.183,0,0,0,494,864.466Zm0,26.8a10.721,10.721,0,1,1,10.855-10.721A10.789,10.789,0,0,1,494,891.268Z" transform="translate(-403 -799)"/>
</svg>
