<svg id="Grupa_3" data-name="Grupa 3" xmlns="http://www.w3.org/2000/svg" width="192" height="192" viewBox="0 0 192 192">
  <defs>
    <style>
      .cls-1 {
        fill: #f3f3f3;
      }

      .cls-2, .cls-4 {
        fill: #0073cf;
      }

      .cls-3 {
        font-size: 18px;
        fill: #fff;
        font-family: Lexend;
        font-weight: 700;
      }

      .cls-4 {
        fill-rule: evenodd;
      }
    </style>
  </defs>
  <circle id="Ellipse_8_copy_2" data-name="Ellipse 8 copy 2" class="cls-1" cx="90" cy="90" r="90"/>
  <circle id="Ellipse_7_copy_2" data-name="Ellipse 7 copy 2" class="cls-2" cx="156" cy="156" r="36"/>
  <text id="_3" data-name="3" class="cls-3" x="151" y="162">3</text>
  <path class="cls-4" d="M465.112,1092.01a2.328,2.328,0,0,0-2.113,2.34v55.35a2.308,2.308,0,0,0,.049.37v0.05q0.01,0.06.024,0.12t0.024,0.12a0.043,0.043,0,0,0,.024.02,1.86,1.86,0,0,0,.073.2v0.02a1.515,1.515,0,0,0,.1.17,0.779,0.779,0,0,0,.049.1c0.023,0.04.047,0.08,0.073,0.12l0.024,0.03a1.2,1.2,0,0,0,.122.14l0.024,0.03a1.3,1.3,0,0,0,.121.14l0.025,0.03a2.3,2.3,0,0,0,.315.27h0.025l0.145,0.09,0.049,0.03c0.016,0.01.032,0.01,0.049,0.02,0.055,0.03.112,0.05,0.17,0.08h0.048c0.056,0.02.112,0.05,0.17,0.07h0.049c0.064,0.02.129,0.03,0.194,0.05h0.024a1.29,1.29,0,0,0,.194.02h48.72a0.988,0.988,0,0,0,.243,0h7.529a2.328,2.328,0,0,0,2.259-1.7l9.253-32.52,0.729-2.54a2.336,2.336,0,0,0-1.582-2.9,1.947,1.947,0,0,0-.677-0.09h-7.65v-9.02a2.332,2.332,0,0,0-2.332-2.34H489.788v-6.54a2.337,2.337,0,0,0-2.332-2.34H465.112v0.01Zm2.55,4.68h17.462v6.53a2.339,2.339,0,0,0,2.332,2.34h31.865v6.68H475.312a2.329,2.329,0,0,0-2.234,1.7l-5.416,19.02v-36.27Zm9.423,20.23h43.766a2.325,2.325,0,0,0,1.6,0h6.1l-8.646,30.39H468.439l1.312-4.63Z" transform="translate(-403 -1033)"/>
</svg>
