<svg id="Grupa_2" data-name="Grupa 2" xmlns="http://www.w3.org/2000/svg" width="192" height="192" viewBox="0 0 192 192">
  <defs>
    <style>
      .cls-1 {
        fill: #f3f3f3;
      }

      .cls-2, .cls-4 {
        fill: #0073cf;
      }

      .cls-3 {
        font-size: 18px;
        fill: #fff;
        font-family: Lexend;
        font-weight: 700;
      }

      .cls-4 {
        fill-rule: evenodd;
      }
    </style>
  </defs>
  <circle id="Ellipse_8_copy" data-name="Ellipse 8 copy" class="cls-1" cx="90" cy="90" r="90"/>
  <circle id="Ellipse_7_copy" data-name="Ellipse 7 copy" class="cls-2" cx="156" cy="156" r="36"/>
  <text id="_2" data-name="2" class="cls-3" x="151" y="162">2</text>
  <path class="cls-4" d="M1149.99,889.587A37.751,37.751,0,0,0,1112.07,852c-20.99-.036-38.03,16.734-38.06,37.457a37.4,37.4,0,0,0,17.69,31.781h0l0.76,0.429a31.9,31.9,0,0,0,3.01,1.608l1.09,0.51,1.87,0.643,1.41,0.509,1.55,0.509c0.95,0.268,1.9.536,2.85,0.724l1.03,0.188c0.79,0,1.6.268,2.41,0.348l1.06,0.134c1.12,0,2.26.161,3.4,0.161a23.694,23.694,0,0,0,3.39-.161l1.06-.134a14.613,14.613,0,0,0,2.41-.348l1.03-.188c0.95-.188,1.9-0.456,2.85-0.724l1.55-.509,1.41-.509,1.66-.67,1.08-.509a32.371,32.371,0,0,0,3.01-1.608l0.76-.429h0A37.407,37.407,0,0,0,1149.99,889.587ZM1096.26,917.7a16.334,16.334,0,0,1,31.48,0A33.118,33.118,0,0,1,1096.26,917.7Zm36.17-3.109a21.8,21.8,0,0,0-40.87,0,31.9,31.9,0,0,1-4.92-45.223,32.845,32.845,0,0,1,45.79-4.86A31.939,31.939,0,0,1,1132.43,914.593ZM1112,865.466a16.082,16.082,0,1,0,16.28,16.081A16.182,16.182,0,0,0,1112,865.466Zm0,26.8a10.721,10.721,0,1,1,10.86-10.721A10.79,10.79,0,0,1,1112,892.268Z" transform="translate(-1020 -799)"/>
</svg>
