<svg id="Grupa_3" data-name="Grupa 3" xmlns="http://www.w3.org/2000/svg" width="192" height="192" viewBox="0 0 192 192">
  <defs>
    <style>
      .cls-1 {
        fill: #f3f3f3;
      }

      .cls-2, .cls-4 {
        fill: #0073cf;
      }

      .cls-3 {
        font-size: 18px;
        fill: #fff;
        font-family: Lexend;
        font-weight: 700;
      }

      .cls-4 {
        fill-rule: evenodd;
      }
    </style>
  </defs>
  <circle id="Ellipse_8_copy_2" data-name="Ellipse 8 copy 2" class="cls-1" cx="90" cy="90" r="90"/>
  <circle id="Ellipse_7_copy_2" data-name="Ellipse 7 copy 2" class="cls-2" cx="156" cy="156" r="36"/>
  <text id="_3" data-name="3" class="cls-3" x="151" y="162">3</text>
  <path class="cls-4" d="M516.665,1079.24a19.218,19.218,0,0,0-19.2,19.19,18.977,18.977,0,0,0,.5,4.3c-0.809.09-1.623,0.14-2.437,0.15h-5.943q-1.23-.015-2.451-0.15a18.924,18.924,0,0,0,.514-4.3A19.316,19.316,0,1,0,472.7,1117.1a20.275,20.275,0,0,1,.217,2.87v5.05a20.255,20.255,0,0,1-.217,2.9,19.27,19.27,0,1,0,14.433,14.34,20.981,20.981,0,0,1,2.5-.17h5.835a18.874,18.874,0,0,1,2.491.16,19.3,19.3,0,1,0,14.433-14.33,20.128,20.128,0,0,1-.217-2.87v-5.06a20.261,20.261,0,0,1,.217-2.89A19.173,19.173,0,1,0,516.665,1079.24ZM468.44,1112.2a13.775,13.775,0,1,1,13.8-13.77,14.391,14.391,0,0,1-.339,2.98,20.994,20.994,0,0,1-5.713-3.24l-4.536-3.69a5.208,5.208,0,0,0-7.405,7.3l3.939,4.83a21.146,21.146,0,0,1,3.128,5.28A12.6,12.6,0,0,1,468.44,1112.2Zm3.94-9-2.844-3.48,3.209,2.61a26.3,26.3,0,0,0,6.918,4.06,14.4,14.4,0,0,1-3.357,3.37A26.375,26.375,0,0,0,472.38,1103.2Zm3.926,32.06a13.868,13.868,0,0,1,3.412,3.38,26.309,26.309,0,0,0-6.77,4.05l-3.276,2.71,2.8-3.45A26.359,26.359,0,0,0,476.306,1135.26Zm-7.866,25.11a13.782,13.782,0,1,1-.864-27.55c0.287-.01.576-0.01,0.864,0a13.7,13.7,0,0,1,2.856.3,21.523,21.523,0,0,1-3.114,5.3l-3.858,4.76a5.2,5.2,0,0,0,7.284,7.38l4.7-3.72a21.613,21.613,0,0,1,5.645-3.25A13.732,13.732,0,0,1,468.44,1160.37Zm27.078-23.69h-5.876a25.686,25.686,0,0,0-4.549.4,19.344,19.344,0,0,0-7.217-7.18,26.493,26.493,0,0,0,.461-4.86v-5.06a26.684,26.684,0,0,0-.461-4.87,19.3,19.3,0,0,0,7.23-7.21,24.947,24.947,0,0,0,4.482.38h5.943a24.793,24.793,0,0,0,4.468-.38,19.118,19.118,0,0,0,7.243,7.21,25.7,25.7,0,0,0-.474,4.88v5.03a26.493,26.493,0,0,0,.461,4.86,19.189,19.189,0,0,0-7.244,7.19,26.2,26.2,0,0,0-4.508-.39h0.041Zm21.161-3.87a13.787,13.787,0,1,1-13.444,10.82,21.2,21.2,0,0,1,5.646,3.21l4.562,3.71a5.433,5.433,0,0,0,7.149-.24,5.247,5.247,0,0,0,.243-7.09l-3.912-4.83a20.909,20.909,0,0,1-3.128-5.3,14.29,14.29,0,0,1,2.843-.28h0.041Zm-3.953,8.99,2.843,3.46-3.263-2.63a26.76,26.76,0,0,0-6.878-4.06,13.731,13.731,0,0,1,3.371-3.34A26.468,26.468,0,0,0,512.726,1141.8Zm-3.927-32.04a13.864,13.864,0,0,1-3.425-3.4,26.279,26.279,0,0,0,6.932-4.05l3.276-2.71-2.856,3.61A27.126,27.126,0,0,0,508.8,1109.76Zm7.826,2.44a13.071,13.071,0,0,1-2.857-.31,21.582,21.582,0,0,1,3.155-5.27l3.845-4.76a5.211,5.211,0,0,0-7.271-7.44l-4.562,3.75a21.745,21.745,0,0,1-5.714,3.29,13.782,13.782,0,1,1,16.415,10.49,13.5,13.5,0,0,1-2.971.32Zm-24.072,1.52a8.79,8.79,0,1,0,8.8,8.79A8.792,8.792,0,0,0,492.553,1113.72Zm0,12.17a3.38,3.38,0,1,1,3.384-3.38A3.386,3.386,0,0,1,492.553,1125.89Z" transform="translate(-403 -1033)"/>
</svg>
