<svg 
 xmlns="http://www.w3.org/2000/svg"
 xmlns:xlink="http://www.w3.org/1999/xlink"
 width="97px" height="97px">
<path fill-rule="evenodd"  fill="rgb(24, 142, 243)"
 d="M94.793,35.347 L81.417,35.347 C80.200,35.347 79.212,34.359 79.212,33.142 C79.212,31.924 80.200,30.938 81.417,30.938 L94.793,30.938 C96.10,30.938 96.998,31.924 96.998,33.142 C96.998,34.359 96.10,35.347 94.793,35.347 ZM62.987,74.591 L34.11,74.591 C27.612,74.591 22.406,69.385 22.406,62.987 L22.406,34.11 C22.406,27.611 27.612,22.406 34.11,22.406 L62.987,22.406 C69.387,22.406 74.591,27.612 74.591,34.11 L74.591,62.987 C74.591,69.387 69.385,74.591 62.987,74.591 ZM70.182,34.11 C70.182,30.43 66.955,26.815 62.987,26.815 L34.11,26.815 C30.43,26.815 26.815,30.43 26.815,34.11 L26.815,62.987 C26.815,66.955 30.43,70.182 34.11,70.182 L62.987,70.182 C66.955,70.182 70.182,66.955 70.182,62.987 L70.182,34.11 ZM59.380,61.585 L37.617,61.585 C36.400,61.585 35.413,60.597 35.413,59.380 L35.413,37.617 C35.413,36.400 36.400,35.413 37.617,35.413 L59.380,35.413 C60.597,35.413 61.585,36.400 61.585,37.617 L61.585,59.380 C61.585,60.597 60.597,61.585 59.380,61.585 ZM57.176,39.822 L39.822,39.822 L39.822,57.176 L57.176,57.176 L57.176,39.822 ZM63.855,17.786 C62.638,17.786 61.651,16.799 61.651,15.581 L61.651,2.204 C61.651,0.987 62.638,0.0 63.855,0.0 C65.72,0.0 66.60,0.987 66.60,2.204 L66.60,15.581 C66.60,16.799 65.72,17.786 63.855,17.786 ZM53.618,17.786 C52.401,17.786 51.413,16.798 51.413,15.581 L51.413,9.254 C51.413,8.37 52.401,7.49 53.618,7.49 C54.835,7.49 55.822,8.37 55.822,9.254 L55.822,15.581 C55.822,16.798 54.835,17.786 53.618,17.786 ZM43.380,17.786 C42.162,17.786 41.175,16.799 41.175,15.581 L41.175,9.254 C41.175,8.37 42.162,7.49 43.380,7.49 C44.597,7.49 45.584,8.37 45.584,9.254 L45.584,15.581 C45.584,16.799 44.597,17.786 43.380,17.786 ZM33.142,17.786 C31.925,17.786 30.938,16.799 30.938,15.581 L30.938,2.204 C30.938,0.987 31.925,0.0 33.142,0.0 C34.360,0.0 35.347,0.987 35.347,2.204 L35.347,15.581 C35.347,16.799 34.360,17.786 33.142,17.786 ZM15.581,66.60 L2.204,66.60 C0.987,66.60 0.0,65.72 0.0,63.855 C0.0,62.638 0.987,61.651 2.204,61.651 L15.581,61.651 C16.799,61.651 17.786,62.638 17.786,63.855 C17.786,65.72 16.799,66.60 15.581,66.60 ZM15.581,55.822 L9.254,55.822 C8.37,55.822 7.50,54.835 7.50,53.617 C7.50,52.401 8.36,51.413 9.254,51.413 L15.581,51.413 C16.799,51.413 17.786,52.401 17.786,53.617 C17.786,54.835 16.799,55.822 15.581,55.822 ZM15.581,45.584 L9.254,45.584 C8.37,45.584 7.50,44.597 7.50,43.380 C7.50,42.163 8.36,41.175 9.254,41.175 L15.581,41.175 C16.799,41.175 17.786,42.163 17.786,43.380 C17.786,44.597 16.799,45.584 15.581,45.584 ZM15.581,35.347 L2.204,35.347 C0.987,35.347 0.0,34.359 0.0,33.142 C0.0,31.924 0.987,30.938 2.204,30.938 L15.581,30.938 C16.799,30.938 17.786,31.924 17.786,33.142 C17.786,34.359 16.799,35.347 15.581,35.347 ZM33.142,79.212 C34.360,79.212 35.347,80.199 35.347,81.416 L35.347,94.794 C35.347,96.10 34.360,96.998 33.142,96.998 C31.925,96.998 30.938,96.10 30.938,94.794 L30.938,81.416 C30.938,80.199 31.925,79.212 33.142,79.212 ZM43.380,79.212 C44.597,79.212 45.584,80.199 45.584,81.416 L45.584,87.743 C45.584,88.960 44.597,89.948 43.380,89.948 C42.162,89.948 41.175,88.960 41.175,87.743 L41.175,81.416 C41.175,80.199 42.162,79.212 43.380,79.212 ZM53.618,79.212 C54.835,79.212 55.822,80.199 55.822,81.416 L55.822,87.743 C55.822,88.960 54.835,89.948 53.618,89.948 C52.401,89.948 51.413,88.960 51.413,87.743 L51.413,81.416 C51.413,80.199 52.401,79.212 53.618,79.212 ZM63.855,79.212 C65.72,79.212 66.60,80.199 66.60,81.416 L66.60,94.794 C66.60,96.10 65.72,96.998 63.855,96.998 C62.638,96.998 61.651,96.10 61.651,94.794 L61.651,81.416 C61.651,80.199 62.638,79.212 63.855,79.212 ZM81.417,41.175 L87.743,41.175 C88.960,41.175 89.948,42.163 89.948,43.380 C89.948,44.597 88.961,45.584 87.743,45.584 L81.417,45.584 C80.200,45.584 79.212,44.597 79.212,43.380 C79.212,42.163 80.200,41.175 81.417,41.175 ZM81.417,51.413 L87.743,51.413 C88.960,51.413 89.948,52.401 89.948,53.617 C89.948,54.835 88.961,55.822 87.743,55.822 L81.417,55.822 C80.200,55.822 79.212,54.835 79.212,53.617 C79.212,52.401 80.200,51.413 81.417,51.413 ZM81.417,61.651 L94.793,61.651 C96.10,61.651 96.998,62.638 96.998,63.855 C96.998,65.72 96.10,66.60 94.793,66.60 L81.417,66.60 C80.200,66.60 79.212,65.72 79.212,63.855 C79.212,62.638 80.200,61.651 81.417,61.651 Z"/>
</svg>