<svg id="Grupa_4" data-name="Grupa 4" xmlns="http://www.w3.org/2000/svg" width="192" height="192" viewBox="0 0 192 192">
  <defs>
    <style>
      .cls-1 {
        fill: #f3f3f3;
      }

      .cls-2, .cls-4 {
        fill: #0073cf;
      }

      .cls-3 {
        font-size: 18px;
        fill: #fff;
        font-family: Lexend;
        font-weight: 700;
      }

      .cls-4 {
        fill-rule: evenodd;
      }
    </style>
  </defs>
  <circle id="Ellipse_8_copy_3" data-name="Ellipse 8 copy 3" class="cls-1" cx="90" cy="90" r="90"/>
  <circle id="Ellipse_7_copy_3" data-name="Ellipse 7 copy 3" class="cls-2" cx="156" cy="156" r="36"/>
  <text id="_4" data-name="4" class="cls-3" x="151" y="162">4</text>
  <path class="cls-4" d="M1128.39,1079.01a2.583,2.583,0,0,0-1.74.64l-13.04,11.37a2.63,2.63,0,0,0,1.71,4.61h2.61v15.25a7.167,7.167,0,0,0-2.28-.37h-5.87a7.679,7.679,0,0,0-7.49,7.78v4.84a7.234,7.234,0,0,0-2.29-.38h-5.86a7.7,7.7,0,0,0-7.5,7.81v4.82a7.126,7.126,0,0,0-2.28-.38h-5.87a7.729,7.729,0,0,0-7.49,7.88v10.5a2.62,2.62,0,0,0,2.61,2.62h62.57a2.62,2.62,0,0,0,2.61-2.62v-57.75h2.6a2.628,2.628,0,0,0,1.71-4.61l-13.03-11.37A2.657,2.657,0,0,0,1128.39,1079.01Zm-0.03,6.1,6.38,5.57a2.629,2.629,0,0,0-1.33,2.97,5.7,5.7,0,0,1,.16,1.33v55.77h-10.43v-55.77a5.21,5.21,0,0,1,.17-1.33,2.635,2.635,0,0,0-1.34-2.97Zm-18.58,30.65h5.87a2.358,2.358,0,0,1,2.28,2.53v32.46H1107.5v-32.46A2.358,2.358,0,0,1,1109.78,1115.76ZM1094.14,1128H1100a2.381,2.381,0,0,1,2.29,2.56v20.19h-10.43v-20.19A2.373,2.373,0,0,1,1094.14,1128Zm-15.65,12.25h5.87a2.414,2.414,0,0,1,2.28,2.63v7.87h-10.43v-7.87A2.42,2.42,0,0,1,1078.49,1140.25Z" transform="translate(-1020 -1033)"/>
</svg>
