<svg 
 xmlns="http://www.w3.org/2000/svg"
 xmlns:xlink="http://www.w3.org/1999/xlink"
 width="105px" height="106px">
<path fill-rule="evenodd"  fill="rgb(24, 142, 243)"
 d="M104.895,56.919 C104.39,70.215 98.209,82.581 88.478,91.741 C78.704,100.941 65.926,106.8 52.497,106.8 C39.67,106.8 26.289,100.941 16.514,91.741 C6.784,82.581 0.954,70.215 0.98,56.919 C0.22,55.746 0.15,54.595 0.15,53.495 C0.15,39.469 5.446,26.282 15.364,16.363 C25.283,6.445 38.470,0.983 52.497,0.983 C66.523,0.983 79.710,6.445 89.629,16.363 C99.548,26.282 105.9,39.469 105.9,53.495 C105.9,54.592 104.972,55.745 104.895,56.919 ZM42.266,101.829 C39.920,99.824 37.726,97.133 35.771,93.800 C33.325,89.631 31.308,84.528 29.781,78.866 C24.657,77.566 19.901,75.841 15.744,73.672 C10.886,71.137 7.83,68.174 4.427,64.931 C8.832,83.476 23.706,97.892 42.266,101.829 ZM27.975,50.689 C27.659,50.640 27.336,50.615 27.16,50.615 C23.595,50.615 20.812,53.398 20.812,56.819 C20.812,60.240 23.595,63.23 27.16,63.23 C27.461,63.23 27.910,62.974 28.352,62.877 C28.352,62.877 28.352,62.877 28.352,62.877 C31.173,62.259 33.220,59.711 33.220,56.819 C33.220,53.788 30.965,51.152 27.975,50.689 ZM17.179,70.921 C20.696,72.756 24.662,74.269 28.936,75.456 C28.261,72.456 27.719,69.328 27.328,66.108 C27.224,66.112 27.120,66.125 27.16,66.125 C26.483,66.125 25.964,66.70 25.455,65.984 C25.393,65.973 25.330,65.967 25.268,65.955 C24.789,65.863 24.325,65.730 23.874,65.568 C23.797,65.540 23.719,65.513 23.642,65.483 C23.204,65.311 22.782,65.109 22.379,64.876 C22.309,64.835 22.242,64.793 22.173,64.751 C21.769,64.503 21.383,64.232 21.23,63.927 C20.980,63.891 20.941,63.852 20.899,63.815 C20.533,63.495 20.189,63.152 19.877,62.779 C19.868,62.768 19.858,62.758 19.849,62.747 C19.537,62.372 19.263,61.966 19.13,61.544 C18.978,61.486 18.941,61.431 18.908,61.373 C18.678,60.964 18.482,60.534 18.315,60.90 C18.285,60.10 18.255,59.932 18.227,59.851 C18.73,59.405 17.951,58.945 17.865,58.471 C17.859,58.437 17.845,58.405 17.839,58.370 L4.44,58.370 C5.898,63.44 10.401,67.385 17.179,70.921 ZM3.225,55.268 L17.839,55.268 C17.845,55.234 17.859,55.204 17.865,55.170 C17.949,54.702 18.69,54.246 18.221,53.805 C18.246,53.730 18.274,53.658 18.301,53.585 C18.469,53.135 18.664,52.700 18.896,52.286 C18.912,52.258 18.930,52.232 18.946,52.203 C19.460,51.308 20.118,50.509 20.889,49.832 C20.889,49.832 20.889,49.832 20.890,49.832 C22.468,48.446 24.514,47.587 26.760,47.526 C27.72,41.855 27.796,36.478 28.898,31.544 C24.638,32.730 20.686,34.240 17.179,36.69 C8.91,40.811 3.86,47.0 3.86,53.495 C3.86,54.90 3.142,54.680 3.225,55.268 ZM4.437,42.46 C7.96,38.809 10.893,35.850 15.744,33.319 C19.888,31.157 24.627,29.437 29.732,28.137 C32.497,17.844 36.905,9.754 42.247,5.169 C23.617,9.116 8.836,23.585 4.437,42.46 ZM50.946,4.216 C45.959,4.974 41.178,9.354 37.341,16.766 C35.717,19.902 34.331,23.464 33.197,27.331 C38.797,26.164 44.774,25.491 50.946,25.396 L50.946,4.216 ZM50.946,28.497 C44.417,28.600 38.114,29.351 32.297,30.682 C30.990,36.28 30.142,41.861 29.822,47.941 C29.838,47.946 29.852,47.955 29.868,47.960 C29.902,47.971 29.933,47.988 29.967,48.0 C30.160,48.63 30.338,48.149 30.524,48.224 C30.561,48.239 30.598,48.252 30.634,48.268 C30.835,48.352 31.44,48.419 31.237,48.516 C31.299,48.548 31.354,48.589 31.414,48.623 C31.603,48.724 31.780,48.839 31.960,48.952 C32.133,49.59 32.315,49.151 32.479,49.269 C32.563,49.329 32.636,49.401 32.714,49.467 C32.888,49.601 33.51,49.743 33.214,49.889 C33.337,49.991 33.465,50.87 33.579,50.199 C33.676,50.296 33.759,50.406 33.849,50.510 C33.996,50.670 34.139,50.833 34.275,51.3 C34.358,51.95 34.444,51.185 34.517,51.285 C34.622,51.426 34.703,51.583 34.797,51.733 C34.913,51.911 35.29,52.87 35.133,52.273 C35.137,52.281 35.143,52.287 35.147,52.295 C35.187,52.368 35.240,52.433 35.278,52.507 C35.380,52.704 35.450,52.918 35.538,53.123 C35.619,53.310 35.707,53.491 35.775,53.684 C35.795,53.740 35.825,53.791 35.844,53.848 C35.877,53.945 35.890,54.50 35.919,54.148 C35.976,54.344 36.16,54.546 36.66,54.745 C36.100,54.895 36.150,55.39 36.177,55.191 C36.181,55.218 36.191,55.242 36.196,55.268 L50.946,55.268 L50.946,28.497 ZM50.946,58.370 L36.190,58.370 C36.188,58.379 36.185,58.388 36.183,58.397 C36.170,58.471 36.144,58.540 36.129,58.614 C36.76,58.850 36.19,59.85 35.953,59.316 C35.930,59.399 35.916,59.486 35.890,59.568 C35.876,59.614 35.855,59.656 35.839,59.702 C35.771,59.908 35.689,60.107 35.607,60.307 C35.606,60.308 35.606,60.310 35.605,60.311 C35.542,60.465 35.485,60.620 35.415,60.770 C35.375,60.854 35.327,60.933 35.283,61.14 C35.168,61.240 35.45,61.458 34.912,61.673 C34.868,61.748 34.825,61.825 34.777,61.898 C34.673,62.56 34.561,62.208 34.448,62.359 C34.315,62.537 34.179,62.708 34.34,62.876 C34.17,62.896 34.2,62.917 33.985,62.936 C33.849,63.91 33.712,63.243 33.567,63.388 C33.521,63.435 33.470,63.475 33.423,63.520 C33.267,63.670 33.107,63.815 32.941,63.954 C32.834,64.47 32.728,64.141 32.615,64.227 C32.502,64.313 32.379,64.388 32.261,64.467 C32.93,64.583 31.927,64.700 31.751,64.805 C31.683,64.851 31.616,64.897 31.545,64.937 C31.337,65.54 31.113,65.145 30.897,65.247 C30.751,65.315 30.613,65.394 30.464,65.454 C30.430,65.468 30.401,65.487 30.367,65.500 C30.814,69.309 31.468,72.925 32.294,76.308 C38.111,77.639 44.416,78.391 50.946,78.494 L50.946,58.370 ZM50.946,81.596 C44.772,81.501 38.792,80.827 33.191,79.660 C37.33,92.801 43.621,101.671 50.946,102.778 L50.946,81.596 ZM77.594,68.400 C77.846,68.523 78.92,68.652 78.330,68.795 C78.456,68.871 78.578,68.951 78.699,69.33 C78.918,69.180 79.129,69.335 79.335,69.499 C79.448,69.589 79.561,69.678 79.669,69.773 C79.883,69.961 80.84,70.161 80.280,70.367 C80.361,70.452 80.446,70.531 80.524,70.619 C80.786,70.916 81.31,71.228 81.253,71.557 C81.298,71.623 81.334,71.695 81.377,71.763 C81.550,72.31 81.711,72.307 81.855,72.593 C81.920,72.720 81.974,72.852 82.33,72.983 C82.99,73.132 82.176,73.276 82.235,73.430 C91.969,69.672 98.558,64.291 100.923,58.370 L78.300,58.370 C78.148,61.737 77.836,65.54 77.373,68.292 C77.447,68.329 77.520,68.364 77.594,68.400 ZM75.248,70.795 C74.692,70.637 74.120,70.557 73.546,70.557 C70.125,70.557 67.342,73.340 67.342,76.761 C67.342,77.110 67.375,77.453 67.432,77.789 C67.445,77.866 67.470,77.941 67.486,78.17 C67.542,78.283 67.606,78.547 67.695,78.800 C67.711,78.846 67.731,78.889 67.748,78.934 C67.851,79.208 67.972,79.474 68.112,79.729 C68.133,79.767 68.154,79.805 68.176,79.843 C68.669,80.698 69.361,81.428 70.194,81.968 C70.258,82.10 70.325,82.49 70.391,82.88 C70.603,82.214 70.824,82.326 71.51,82.427 C71.132,82.463 71.212,82.501 71.295,82.534 C71.595,82.651 71.904,82.753 72.227,82.823 C72.662,82.917 73.106,82.965 73.546,82.965 C76.967,82.965 79.750,80.182 79.750,76.761 C79.750,76.414 79.721,76.66 79.664,75.726 C79.271,73.382 77.538,71.448 75.248,70.795 ZM100.583,64.856 C96.808,69.488 90.727,73.524 82.831,76.501 C82.833,76.588 82.852,76.674 82.852,76.761 C82.852,81.892 78.678,86.67 73.546,86.67 C73.333,86.67 73.119,86.47 72.905,86.32 C70.196,93.56 66.729,98.427 62.794,101.814 C81.347,97.850 96.206,83.414 100.583,64.856 ZM54.48,102.771 C60.83,101.834 65.857,95.491 69.872,85.309 C69.833,85.292 69.798,85.267 69.759,85.250 C68.986,84.904 68.268,84.456 67.622,83.920 C67.580,83.885 67.541,83.847 67.500,83.811 C67.215,83.566 66.946,83.305 66.693,83.27 C66.649,82.980 66.606,82.932 66.564,82.884 C66.298,82.581 66.50,82.263 65.824,81.927 C65.815,81.913 65.804,81.899 65.795,81.885 C65.566,81.539 65.352,81.182 65.169,80.805 C61.537,81.280 57.810,81.550 54.48,81.608 L54.48,102.771 ZM54.48,78.509 C57.512,78.454 60.949,78.224 64.298,77.803 C64.260,77.459 64.240,77.111 64.240,76.761 C64.240,71.629 68.414,67.455 73.546,67.455 C73.822,67.455 74.98,67.467 74.371,67.491 C74.784,64.514 75.49,61.461 75.192,58.370 L54.48,58.370 L54.48,78.509 ZM54.48,55.268 L75.289,55.268 C75.299,54.677 75.319,54.89 75.319,53.495 C75.319,47.946 74.889,42.508 74.41,37.308 C73.876,37.316 73.711,37.321 73.546,37.321 C72.404,37.321 71.313,37.104 70.301,36.726 C70.218,36.696 70.134,36.667 70.52,36.634 C70.52,36.634 70.52,36.634 70.52,36.634 C69.882,36.565 69.718,36.487 69.553,36.408 C69.455,36.362 69.357,36.317 69.262,36.267 C69.262,36.267 69.262,36.267 69.262,36.267 C68.890,36.73 68.534,35.855 68.193,35.615 L68.193,35.615 C68.62,35.522 67.934,35.426 67.808,35.327 C67.808,35.327 67.808,35.327 67.808,35.327 C67.256,34.892 66.752,34.400 66.310,33.854 C66.310,33.854 66.310,33.854 66.310,33.854 C66.265,33.798 66.223,33.738 66.180,33.680 C65.978,33.419 65.792,33.146 65.618,32.864 C65.579,32.797 65.536,32.732 65.497,32.664 C65.497,32.664 65.497,32.664 65.497,32.664 C64.956,31.731 64.575,30.699 64.385,29.599 C64.362,29.463 64.332,29.329 64.314,29.191 C60.957,28.767 57.515,28.537 54.48,28.482 L54.48,55.268 ZM79.165,30.644 C79.553,29.818 79.750,28.933 79.750,28.15 C79.750,24.594 76.967,21.811 73.546,21.811 C72.888,21.811 72.238,21.915 71.612,22.120 C71.299,22.222 70.999,22.349 70.712,22.496 C70.445,22.633 70.193,22.792 69.952,22.964 C69.936,22.975 69.919,22.983 69.903,22.994 C69.161,23.534 68.554,24.234 68.115,25.33 C68.99,25.62 68.79,25.88 68.63,25.118 C67.951,25.330 67.862,25.553 67.775,25.777 C67.745,25.853 67.708,25.925 67.681,26.2 C67.616,26.191 67.574,26.389 67.527,26.586 C67.498,26.706 67.461,26.824 67.440,26.946 C67.409,27.122 67.400,27.302 67.384,27.481 C67.369,27.659 67.342,27.834 67.342,28.15 C67.342,31.436 70.125,34.219 73.546,34.219 C74.19,34.219 74.496,34.163 74.963,34.54 C76.793,33.627 78.364,32.352 79.165,30.644 ZM54.48,4.217 L54.48,25.383 C57.562,25.437 61.49,25.677 64.457,26.98 C64.459,26.88 64.463,26.80 64.465,26.70 C64.718,24.881 65.196,23.772 65.865,22.788 C65.872,22.778 65.880,22.768 65.887,22.757 C66.98,22.449 66.326,22.154 66.574,21.873 C66.608,21.835 66.643,21.798 66.678,21.760 C66.901,21.514 67.135,21.280 67.385,21.58 C67.463,20.989 67.545,20.924 67.626,20.857 C67.843,20.677 68.65,20.504 68.299,20.345 C68.432,20.253 68.571,20.170 68.709,20.85 C68.844,20.4 68.969,19.909 69.108,19.834 C65.110,10.637 59.729,5.80 54.48,4.217 ZM62.711,5.154 C66.269,8.195 69.459,12.834 72.41,18.834 C72.537,18.753 73.40,18.709 73.546,18.709 C78.678,18.709 82.852,22.884 82.852,28.15 C82.852,28.823 82.738,29.611 82.537,30.377 C90.578,33.363 96.750,37.431 100.571,42.110 C96.188,23.606 81.378,9.95 62.711,5.154 ZM81.270,33.199 C81.190,33.317 81.100,33.426 81.15,33.540 C80.945,33.634 80.879,33.730 80.805,33.822 C80.632,34.37 80.449,34.243 80.258,34.441 C80.223,34.478 80.191,34.517 80.155,34.553 C79.935,34.776 79.702,34.985 79.460,35.184 C79.374,35.255 79.283,35.319 79.195,35.387 C79.26,35.516 78.856,35.642 78.679,35.760 C78.575,35.829 78.468,35.894 78.361,35.959 C78.188,36.65 78.12,36.165 77.832,36.259 C77.722,36.316 77.612,36.373 77.500,36.427 C77.353,36.497 77.201,36.557 77.50,36.618 C77.946,42.44 78.421,47.707 78.421,53.495 C78.421,54.89 78.397,54.677 78.388,55.268 L101.766,55.268 C101.850,54.680 101.907,54.89 101.907,53.495 C101.907,45.483 94.221,37.951 81.270,33.199 Z"/>
</svg>