<svg xmlns="http://www.w3.org/2000/svg" viewBox="0 0 848.22 171.72"><defs><style>.cls-1{fill:#0073cf;}.cls-2{fill:#212121;}.cls-3{fill:#4887c7;}</style></defs><g id="Warstwa_2" data-name="Warstwa 2"><g id="Warstwa_1-2" data-name="Warstwa 1"><path class="cls-1" d="M68.84,151.11l6.74,12.33A50.88,50.88,0,1,1,50.23,68.09H51.3A14.9,14.9,0,1,0,36,53.2a14.83,14.83,0,0,0,1.78,7.06L25.37,66.9A28.87,28.87,0,1,1,51.81,82.12h-1.6a36.84,36.84,0,0,0,.66,73.67A36.55,36.55,0,0,0,68.84,151.11Z"/><polygon class="cls-1" points="51.64 82.12 51.38 82.14 50.87 82.14 51.64 82.12"/><path class="cls-1" d="M66.27,118.9v.35a1.72,1.72,0,0,1,0-.32v-.61a.71.71,0,0,1,0,.2v.38Z"/><path class="cls-1" d="M168,118.9a50.86,50.86,0,0,1-101.71.64v-1a.71.71,0,0,0,0-.2s0,0,0,0a14.91,14.91,0,1,0-14.89,15.55A14.63,14.63,0,0,0,58.41,132l6.64,12.36A28.95,28.95,0,1,1,80.27,118h0v1.62a36.83,36.83,0,0,0,73.66-.68,36.51,36.51,0,0,0-4.38-17.44l12.35-6.64A50.68,50.68,0,0,1,168,118.9Z"/><path class="cls-1" d="M80.3,118.88a3.39,3.39,0,0,1,0,.46V118a2.81,2.81,0,0,1,0,.29C80.28,118.47,80.3,118.68,80.3,118.88Z"/><path class="cls-1" d="M102.15,119A14.91,14.91,0,1,0,132,119a14.61,14.61,0,0,0-1.76-7.06l12.36-6.66a29,29,0,1,1-26.46-15.19,1.72,1.72,0,0,1,.32,0h1.09s0,0,0,0a36.84,36.84,0,0,0-.47-73.68A36.5,36.5,0,0,0,99.4,20.87L92.7,8.56A50.82,50.82,0,0,1,153,89.13a50.81,50.81,0,0,1-35.2,14.93h-1.34A15,15,0,0,0,102.15,119Z"/><path class="cls-1" d="M116.43,90a1.72,1.72,0,0,0-.32,0v0Z"/><polygon class="cls-1" points="116.72 104.06 116.59 104.07 116.47 104.06 116.72 104.06"/><path class="cls-1" d="M117.52,90h-1.09c.23,0,.43,0,.63,0A3.46,3.46,0,0,1,117.52,90Z"/><polygon class="cls-1" points="117.78 104.06 117.54 104.07 116.98 104.06 117.78 104.06"/><path class="cls-1" d="M146.05,53.59a29,29,0,0,1-28.94,28.94A29.11,29.11,0,0,1,88.18,54.25V53.13a36.83,36.83,0,0,0-73.66.46,36.59,36.59,0,0,0,4,16.64L6,76.7A50.86,50.86,0,1,1,102.2,53V54a14.9,14.9,0,1,0,7.85-13.58L103.39,28.1a28.94,28.94,0,0,1,42.66,25.49Z"/><path class="cls-1" d="M102.22,53.59a3,3,0,0,1,0,.43v-.9A3.54,3.54,0,0,1,102.22,53.59Z"/><path class="cls-1" d="M88.18,53.15v.93c0-.17,0-.32,0-.49A3.24,3.24,0,0,1,88.18,53.15Z"/><path class="cls-1" d="M222.45,18.18a18.18,18.18,0,1,1,18.17,18.17A18.32,18.32,0,0,1,222.45,18.18Zm3.11,35.15h30.37V168.85H225.56Z"/><path class="cls-2" d="M355.9,154c-9.09,11.48-21.77,17.7-35.64,17.7-29.17,0-51.18-22-51.18-60.51,0-37.79,21.76-60.75,51.18-60.75a44.5,44.5,0,0,1,35.64,17.7V9.33h30.61V168.85H355.9Zm0-63.38c-5-7.65-16-13.15-26.31-13.15-17.22,0-29.18,13.63-29.18,33.72,0,19.85,12,33.48,29.18,33.48,10.28,0,21.28-5.5,26.31-13.15Z"/><path class="cls-2" d="M407.08,53.33h30.37V69.12c8.13-10.29,22.48-18.42,36.83-18.42V80.36a38.28,38.28,0,0,0-8.37-1c-10,0-23.43,5.74-28.46,13.15v76.3H407.08Z"/><path class="cls-2" d="M536,50.46c34.44,0,57.87,25.83,57.87,63.62v6.69H508c1.92,14.59,13.64,26.79,33.25,26.79,10.76,0,23.43-4.3,30.85-11.48l13.39,19.61c-11.48,10.53-29.65,16-47.59,16-35.16,0-61.7-23.68-61.7-60.75C476.2,77.49,500.83,50.46,536,50.46Zm-28.46,49.75h56.92c-.72-11-8.38-25.59-28.46-25.59C517.09,74.62,509,88.73,507.53,100.21Z"/><path class="cls-2" d="M604.76,111c0-32.76,23-60.51,61-60.51C704,50.46,727,78.21,727,111c0,33-23,60.75-61.23,60.75C627.72,171.72,604.76,144,604.76,111Zm90.64,0c0-17.94-10.76-33.48-29.66-33.48S636.33,93,636.33,111c0,18.17,10.52,33.72,29.41,33.72S695.4,129.14,695.4,111Z"/><path class="cls-2" d="M817.85,99c0-16-8.37-21.52-21.28-21.52a32.88,32.88,0,0,0-26.31,13.63v77.73H739.89V53.33h30.37V68.4c7.41-8.85,21.52-17.94,40.42-17.94,25.35,0,37.54,14.35,37.54,36.83v81.56H817.85Z"/><line class="cls-3" x1="544.49" y1="120.01" x2="534.94" y2="102.55"/><line class="cls-3" x1="548.53" y1="106.71" x2="530.9" y2="115.85"/><line class="cls-3" x1="548.53" y1="106.7" x2="530.9" y2="115.86"/></g></g></svg>